<svg width="511" height="511" viewBox="0 0 511 511" fill="none" xmlns="http://www.w3.org/2000/svg">
<rect width="511" height="511" fill="white"/>
<path d="M74.9407 154C77.9172 154.198 81.5883 154.397 85.9539 154.595C90.5179 154.595 95.2804 154.695 100.241 154.893C105.202 154.893 109.865 154.893 114.231 154.893C118.795 154.893 122.367 154.893 124.947 154.893V315.031C124.947 322.373 125.641 328.028 127.03 331.997C128.419 335.966 131.098 338.744 135.067 340.331C139.035 341.919 144.691 342.713 152.033 342.713V356.107C146.477 356.107 140.028 356.107 132.686 356.107C125.542 356.107 118.2 356.107 110.659 356.107C103.317 356.305 96.471 356.405 90.121 356.405C83.7711 356.603 78.711 356.802 74.9407 357C74.9407 354.222 75.0399 351.841 75.2383 349.856C75.4368 347.674 75.8336 345.788 76.4289 344.201C81.7867 343.804 85.9539 342.812 88.9304 341.224C91.907 339.637 93.9905 336.859 95.1811 332.89C96.3718 328.723 96.9671 322.77 96.9671 315.031V192.695C96.9671 185.948 96.3718 180.789 95.1811 177.217C93.9905 173.645 91.907 171.065 88.9304 169.478C85.9539 167.891 81.7867 166.998 76.4289 166.799C75.8336 165.212 75.4368 163.326 75.2383 161.144C75.0399 158.762 74.9407 156.381 74.9407 154ZM211.861 305.208C214.838 306.002 217.318 306.994 219.303 308.185C221.287 309.177 223.172 310.566 224.958 312.352C222.775 319.099 220.89 326.441 219.303 334.378C217.914 342.316 216.723 349.757 215.731 356.702C211.961 356.504 206.801 356.405 200.253 356.405C193.903 356.405 186.561 356.305 178.227 356.107C170.091 356.107 161.36 356.107 152.033 356.107V342.713H153.819C168.106 342.713 178.822 341.324 185.966 338.545C193.308 335.569 198.765 331.303 202.337 325.746C205.908 320.19 209.083 313.344 211.861 305.208ZM191.026 222.163C190.827 227.124 190.629 232.481 190.43 238.236C190.43 243.991 190.43 249.448 190.43 254.607C190.43 259.766 190.43 265.521 190.43 271.871C190.629 278.221 190.827 283.976 191.026 289.135C188.446 289.135 186.065 289.036 183.882 288.837C181.699 288.639 179.516 288.242 177.334 287.647C176.54 277.328 173.762 270.383 168.999 266.811C164.435 263.041 156.002 261.155 143.699 261.155H122.268V248.356H143.699C156.002 248.356 164.535 246.769 169.297 243.594C174.059 240.419 176.54 233.97 176.738 224.246C179.318 223.453 181.699 222.957 183.882 222.758C186.065 222.361 188.446 222.163 191.026 222.163ZM208.587 154C208.984 158.366 209.48 163.426 210.076 169.18C210.671 174.935 211.365 180.59 212.159 186.147C212.953 191.703 213.846 196.664 214.838 201.029C213.251 202.418 211.266 203.411 208.885 204.006C206.702 204.403 204.222 204.601 201.444 204.601C201.047 198.45 199.459 192.497 196.681 186.742C193.903 180.987 189.041 176.225 182.096 172.455C175.349 168.684 165.527 166.799 152.628 166.799H118.696L124.947 154.893C140.623 154.893 154.017 154.893 165.13 154.893C176.441 154.695 185.668 154.496 192.812 154.298C200.154 154.099 205.412 154 208.587 154Z" fill="#A59E96"/>
<path d="M253.707 357C253.707 354.222 253.807 351.841 254.005 349.856C254.204 347.674 254.6 345.788 255.196 344.201C260.553 343.804 264.721 342.812 267.697 341.224C270.674 339.637 272.757 336.859 273.948 332.89C275.337 328.723 276.031 322.77 276.031 315.031V192.695C276.031 185.948 275.436 180.789 274.246 177.217C273.055 173.645 270.971 171.065 267.995 169.478C265.018 167.891 260.851 166.998 255.493 166.799C254.898 165.212 254.501 163.326 254.303 161.144C254.104 158.762 254.005 156.381 254.005 154C257.18 154.198 261.149 154.397 265.911 154.595C270.872 154.595 275.932 154.695 281.092 154.893C286.449 154.893 291.311 154.893 295.677 154.893C301.431 154.893 307.285 154.794 313.238 154.595C319.191 154.397 325.045 154.298 330.8 154.298C341.317 154.298 351.933 155.091 362.649 156.679C373.364 158.068 383.584 160.747 393.307 164.716C403.031 168.486 411.662 174.042 419.203 181.384C426.942 188.528 432.994 197.755 437.36 209.066C441.726 220.178 443.908 233.97 443.908 250.44C443.908 266.513 441.924 280.304 437.955 291.814C433.987 303.323 428.629 312.947 421.882 320.686C415.334 328.425 407.991 334.676 399.856 339.438C391.72 344.201 383.385 347.773 374.853 350.154C366.518 352.535 358.482 354.123 350.743 354.916C343.004 355.71 336.356 356.107 330.8 356.107C325.244 356.107 318.794 356.107 311.452 356.107C304.309 356.107 296.966 356.107 289.426 356.107C282.084 356.305 275.238 356.405 268.888 356.405C262.538 356.603 257.478 356.802 253.707 357ZM330.8 342.713C342.706 342.713 353.62 341.324 363.542 338.545C373.662 335.569 382.393 330.806 389.735 324.258C397.276 317.511 403.031 308.482 406.999 297.172C411.166 285.861 413.25 271.772 413.25 254.905C413.25 238.831 410.769 225.139 405.809 213.828C401.046 202.319 394.498 193.092 386.163 186.147C378.028 179.003 368.701 173.844 358.184 170.669C347.865 167.295 337.15 165.609 326.037 165.609C321.672 165.609 316.909 166.005 311.75 166.799C306.591 167.394 303.217 168.188 301.63 169.18L304.011 161.441V315.031C304.011 322.373 304.705 328.028 306.095 331.997C307.484 335.966 310.063 338.744 313.834 340.331C317.802 341.919 323.458 342.713 330.8 342.713Z" fill="#A59E96"/>
<path d="M42.38 215.313H510.985V302.903H42.38V215.313Z" fill="white"/>
<path d="M57.3877 287.888C52.3464 287.888 48.0022 286.681 44.3553 284.268C40.1184 281.479 38 277.644 38 272.764C38 267.83 39.7966 263.405 43.3899 259.49C46.6078 255.95 50.657 253.269 55.5374 251.445C52.9095 249.139 51.5955 246.324 51.5955 242.998C51.5955 237.903 54.1967 233.72 59.3989 230.449C64.0112 227.606 68.9185 226.185 74.1207 226.185C77.4995 226.185 80.2615 226.829 82.4067 228.116C85.1419 229.725 86.5095 232.138 86.5095 235.356C86.5095 237.823 85.5174 239.861 83.533 241.47C81.5486 243.079 79.3229 243.883 76.8559 243.883C75.5688 243.883 74.362 243.481 73.2358 242.677C72.1095 241.872 71.5464 240.8 71.5464 239.459C71.5464 238.976 71.7073 238.413 72.0291 237.769C72.3509 237.072 72.7531 236.724 73.2358 236.724C74.2012 236.724 74.6838 237.206 74.6838 238.172C74.6838 238.332 74.6302 238.601 74.5229 238.976C74.4157 239.298 74.362 239.539 74.362 239.7C74.362 240.719 75.1933 241.229 76.8559 241.229C78.7866 241.229 80.4224 240.665 81.7632 239.539C83.104 238.359 83.7743 236.831 83.7743 234.954C83.7743 232.808 82.7285 231.226 80.6369 230.207C78.9743 229.349 76.8827 228.92 74.362 228.92C69.8034 228.92 65.4592 230.1 61.3296 232.46C56.6637 235.195 54.3307 238.654 54.3307 242.838C54.3307 246.27 55.8056 248.817 58.7553 250.48C60.2034 250.105 61.8123 249.836 63.5821 249.676C65.352 249.461 67.3095 249.354 69.4548 249.354C72.5118 249.354 74.0403 250.212 74.0403 251.928C74.0403 253.912 71.9218 254.905 67.6849 254.905C63.6626 254.905 60.6056 254.395 58.514 253.376C53.6872 254.77 49.638 257.103 46.3665 260.375C42.5587 264.076 40.6548 268.178 40.6548 272.683C40.6548 276.867 42.4514 280.084 46.0447 282.337C48.9944 284.16 52.8022 285.072 57.4682 285.072C63.2604 285.072 68.4358 283.865 72.9945 281.452C78.5185 278.502 81.2805 274.4 81.2805 269.144C81.2805 266.569 80.3419 265.282 78.4648 265.282C78.1431 265.282 77.6604 265.363 77.0168 265.524C76.4269 265.631 75.971 265.684 75.6492 265.684C74.7375 265.684 74.2816 265.202 74.2816 264.236C74.2816 263.11 75.7028 262.547 78.5453 262.547C82.1386 262.547 83.9352 264.88 83.9352 269.546C83.9352 270.297 83.8816 271.021 83.7743 271.718C83.6671 272.415 83.5062 273.112 83.2917 273.81C81.6291 278.529 78.0626 282.149 72.5922 284.67C68.0872 286.815 63.019 287.888 57.3877 287.888Z" fill="#A59E96"/>
<path d="M95.2569 284.992C90.8055 284.992 88.3921 281.935 88.0167 275.821C87.7485 271.262 89.1429 264.397 92.1999 255.226C94.9351 247.074 97.6435 240.585 100.325 235.758C103.489 230.02 106.493 227.15 109.335 227.15C111.749 227.15 112.955 229.081 112.955 232.943C112.955 237.019 111.4 241.765 108.289 247.182C103.355 255.763 97.8848 262.493 91.8781 267.374C91.61 268.768 91.3954 270.082 91.2346 271.316C91.0737 272.496 90.9932 273.622 90.9932 274.695C90.9932 279.789 92.5753 282.337 95.7396 282.337C97.6167 282.337 99.4401 281.827 101.21 280.808C103.033 279.736 105.045 277.564 107.244 274.292C107.404 274.078 107.726 273.649 108.209 273.005C108.745 272.308 109.201 271.959 109.576 271.959C110.113 271.959 110.381 272.308 110.381 273.005C110.381 273.112 110.354 273.327 110.3 273.649C110.247 273.97 110.14 274.265 109.979 274.534C109.121 276.196 107.994 277.832 106.6 279.441C105.206 281.05 103.543 282.391 101.612 283.463C99.7351 284.482 97.6167 284.992 95.2569 284.992ZM93.1653 262.547C97.9921 257.613 102.202 252.008 105.795 245.734C108.799 240.478 110.3 236.026 110.3 232.379C110.3 230.663 109.925 229.805 109.174 229.805C108.638 229.805 107.914 230.261 107.002 231.173C105.125 233.211 103.114 236.697 100.969 241.631C99.6279 244.634 98.3139 247.879 97.0267 251.365C95.7396 254.851 94.4524 258.578 93.1653 262.547Z" fill="#A59E96"/>
<path d="M118.173 251.848C116.296 251.848 115.357 250.909 115.357 249.032C115.357 247.155 116.296 246.216 118.173 246.216C120.05 246.216 120.989 247.155 120.989 249.032C120.989 250.909 120.05 251.848 118.173 251.848ZM114.553 284.268C112.729 284.268 111.201 283.597 109.967 282.257C108.734 280.916 108.117 279.253 108.117 277.269C108.117 274.855 109.029 271.664 110.852 267.696C112.676 263.727 113.587 260.563 113.587 258.203C113.587 257.345 114.043 256.916 114.955 256.916C115.867 256.916 116.323 257.613 116.323 259.007C116.323 260.938 115.411 263.915 113.587 267.937C111.764 271.959 110.852 274.989 110.852 277.027C110.852 278.261 111.228 279.334 111.979 280.245C112.783 281.103 113.748 281.533 114.875 281.533C116.859 281.533 118.656 280.835 120.265 279.441C121.874 278.046 123.348 276.33 124.689 274.292C125.279 273.381 125.735 272.764 126.057 272.442C126.379 272.12 126.7 271.959 127.022 271.959C127.719 271.959 128.068 272.227 128.068 272.764C128.068 273.086 127.853 273.676 127.424 274.534C125.923 277.269 124.072 279.575 121.874 281.452C119.675 283.329 117.234 284.268 114.553 284.268Z" fill="#A59E96"/>
<path d="M152.668 284.268C150.684 284.268 149.021 283.678 147.681 282.498C146.34 281.264 145.777 279.495 145.991 277.188C142.72 281.854 138.778 284.187 134.166 284.187C131.216 284.187 129.017 283.034 127.569 280.728C126.389 278.905 125.799 276.438 125.799 273.327C125.799 272.737 125.826 272.147 125.88 271.557C125.933 270.914 126.014 270.297 126.121 269.707C126.496 267.562 127.22 265.497 128.293 263.512C129.366 261.474 130.76 259.463 132.476 257.479C136.338 253.135 140.333 250.963 144.463 250.963C146.662 250.963 148.485 251.606 149.933 252.893C151.381 254.127 152.105 255.87 152.105 258.122C152.105 259.034 151.864 259.919 151.381 260.777C152.508 260.831 152.963 261.34 152.749 262.306L150.175 269.626C149.316 272.04 148.887 274.239 148.887 276.223C148.887 278.046 149.263 279.468 150.014 280.487C150.818 281.506 151.891 282.015 153.232 282.015C153.982 282.015 154.814 281.801 155.725 281.372C156.637 280.943 157.683 280.219 158.863 279.2C159.667 278.502 160.418 277.725 161.115 276.867C161.866 276.008 162.51 275.15 163.046 274.292C163.368 273.81 163.716 273.354 164.092 272.925C164.467 272.442 164.843 272.201 165.218 272.201C165.862 272.201 166.184 272.549 166.184 273.246C166.184 273.515 166.13 273.783 166.023 274.051C165.969 274.265 165.889 274.426 165.781 274.534C165.084 275.66 164.306 276.759 163.448 277.832C162.59 278.905 161.678 279.897 160.713 280.808C159.426 281.988 158.085 282.873 156.691 283.463C155.296 284 153.956 284.268 152.668 284.268ZM128.534 273.729C128.534 278.878 130.519 281.452 134.487 281.452C137.866 281.452 140.789 279.843 143.256 276.625C144.007 275.606 144.785 274.319 145.589 272.764C146.394 271.208 147.171 269.385 147.922 267.293C148.137 266.757 148.351 266.14 148.566 265.443C148.834 264.692 149.156 263.861 149.531 262.949C148.458 263.754 147.359 264.156 146.233 264.156C144.302 264.156 143.337 263.62 143.337 262.547C143.337 261.635 143.792 261.179 144.704 261.179C144.865 261.179 145.08 261.233 145.348 261.34C145.67 261.394 145.911 261.421 146.072 261.421C146.876 261.421 147.627 261.072 148.324 260.375C149.021 259.678 149.37 258.927 149.37 258.122C149.37 255.173 147.708 253.698 144.382 253.698C141.057 253.698 137.732 255.629 134.407 259.49C131.243 263.03 129.392 266.596 128.856 270.189C128.749 270.779 128.668 271.369 128.615 271.959C128.561 272.549 128.534 273.139 128.534 273.729Z" fill="#A59E96"/>
<path d="M187.467 284.348C185.482 284.348 183.927 283.812 182.801 282.739C181.675 281.667 181.111 280.165 181.111 278.234C181.111 277.537 181.299 276.438 181.675 274.936C182.05 273.434 182.56 271.772 183.203 269.948C183.954 267.749 184.517 265.979 184.892 264.639C185.322 263.298 185.59 262.359 185.697 261.823C185.804 261.233 185.885 260.697 185.938 260.214C185.992 259.731 186.019 259.276 186.019 258.846C186.019 255.789 184.732 254.261 182.157 254.261C178.51 254.261 174.997 257.103 171.619 262.788C169.903 265.684 167.865 270.216 165.505 276.384C165.29 277.135 164.942 278.073 164.459 279.2C164.03 280.272 163.52 281.533 162.93 282.981C162.662 283.571 162.314 283.865 161.885 283.865C161.509 283.865 161.161 283.705 160.839 283.383C160.517 283.007 160.356 282.659 160.356 282.337C160.356 282.122 161.268 279.521 163.091 274.534C166.577 264.88 168.32 257.452 168.32 252.25C168.32 251.231 168.776 250.721 169.688 250.721C170.224 250.721 170.653 251.097 170.975 251.848C171.297 252.545 171.458 253.162 171.458 253.698C171.458 255.146 171.216 256.889 170.734 258.927C174.381 253.939 178.323 251.445 182.56 251.445C187.011 251.445 189.237 253.859 189.237 258.686C189.237 260.777 188.137 264.96 185.938 271.235C185.563 272.308 185.187 273.488 184.812 274.775C184.49 276.062 184.329 277.242 184.329 278.315C184.329 279.28 184.517 280.084 184.892 280.728C185.322 281.318 186.072 281.613 187.145 281.613C188.325 281.613 189.585 281.264 190.926 280.567C192.267 279.816 193.554 278.878 194.787 277.752C196.021 276.625 197.013 275.445 197.764 274.212C198.247 273.461 198.622 272.898 198.89 272.522C199.212 272.147 199.587 271.959 200.017 271.959C200.66 271.959 200.982 272.335 200.982 273.086C200.982 273.193 200.928 273.434 200.821 273.81C200.714 274.185 200.606 274.426 200.499 274.534C199.587 276.25 198.408 277.859 196.96 279.36C195.511 280.862 193.956 282.069 192.294 282.981C190.631 283.892 189.022 284.348 187.467 284.348Z" fill="#A59E96"/>
<path d="M225.731 284.268C223.746 284.268 222.084 283.678 220.743 282.498C219.402 281.264 218.839 279.495 219.054 277.188C215.782 281.854 211.84 284.187 207.228 284.187C204.278 284.187 202.079 283.034 200.631 280.728C199.451 278.905 198.861 276.438 198.861 273.327C198.861 272.737 198.888 272.147 198.942 271.557C198.995 270.914 199.076 270.297 199.183 269.707C199.559 267.562 200.283 265.497 201.355 263.512C202.428 261.474 203.822 259.463 205.538 257.479C209.4 253.135 213.395 250.963 217.525 250.963C219.724 250.963 221.547 251.606 222.995 252.893C224.443 254.127 225.168 255.87 225.168 258.122C225.168 259.034 224.926 259.919 224.443 260.777C225.57 260.831 226.026 261.34 225.811 262.306L223.237 269.626C222.379 272.04 221.95 274.239 221.95 276.223C221.95 278.046 222.325 279.468 223.076 280.487C223.88 281.506 224.953 282.015 226.294 282.015C227.045 282.015 227.876 281.801 228.788 281.372C229.699 280.943 230.745 280.219 231.925 279.2C232.73 278.502 233.48 277.725 234.178 276.867C234.928 276.008 235.572 275.15 236.108 274.292C236.43 273.81 236.779 273.354 237.154 272.925C237.53 272.442 237.905 272.201 238.28 272.201C238.924 272.201 239.246 272.549 239.246 273.246C239.246 273.515 239.192 273.783 239.085 274.051C239.031 274.265 238.951 274.426 238.844 274.534C238.146 275.66 237.369 276.759 236.511 277.832C235.652 278.905 234.741 279.897 233.775 280.808C232.488 281.988 231.147 282.873 229.753 283.463C228.359 284 227.018 284.268 225.731 284.268ZM201.597 273.729C201.597 278.878 203.581 281.452 207.55 281.452C210.928 281.452 213.851 279.843 216.318 276.625C217.069 275.606 217.847 274.319 218.651 272.764C219.456 271.208 220.233 269.385 220.984 267.293C221.199 266.757 221.413 266.14 221.628 265.443C221.896 264.692 222.218 263.861 222.593 262.949C221.521 263.754 220.421 264.156 219.295 264.156C217.364 264.156 216.399 263.62 216.399 262.547C216.399 261.635 216.855 261.179 217.766 261.179C217.927 261.179 218.142 261.233 218.41 261.34C218.732 261.394 218.973 261.421 219.134 261.421C219.938 261.421 220.689 261.072 221.387 260.375C222.084 259.678 222.432 258.927 222.432 258.122C222.432 255.173 220.77 253.698 217.445 253.698C214.119 253.698 210.794 255.629 207.469 259.49C204.305 263.03 202.455 266.596 201.918 270.189C201.811 270.779 201.731 271.369 201.677 271.959C201.623 272.549 201.597 273.139 201.597 273.729Z" fill="#A59E96"/>
<path d="M260.529 289.336C260.1 289.336 259.456 289.309 258.598 289.255C257.794 289.202 257.177 289.175 256.748 289.175C255.89 289.175 255.461 288.719 255.461 287.807C255.461 286.896 255.89 286.44 256.748 286.44C257.123 286.44 257.713 286.467 258.518 286.52C259.322 286.574 259.912 286.601 260.288 286.601C264.954 286.601 269.325 284.831 273.401 281.291C270.88 278.61 269.62 275.392 269.62 271.638C269.62 268.312 270.719 265.47 272.918 263.11C275.063 260.804 277.879 259.651 281.365 259.651C283.027 259.651 284.529 259.973 285.87 260.616C286.728 258.042 287.586 255.468 288.444 252.893C289.302 250.319 290.16 247.718 291.018 245.09C293.217 238.762 295.55 233.962 298.017 230.69L293.432 230.449C282.116 230.449 274.527 233.184 270.665 238.654C269.539 240.317 268.976 242.006 268.976 243.722C268.976 245.385 269.485 246.753 270.504 247.825C271.577 248.844 272.945 249.354 274.607 249.354C275.144 249.354 275.868 249.166 276.779 248.791C277.691 248.415 278.281 248.227 278.549 248.227C279.461 248.227 279.917 248.71 279.917 249.676C279.917 250.265 279.139 250.855 277.584 251.445C276.189 251.874 275.144 252.089 274.446 252.089C272.033 252.089 270.049 251.311 268.493 249.756C266.992 248.147 266.241 246.163 266.241 243.803C266.241 241.658 266.938 239.512 268.332 237.367C272.623 230.985 281.204 227.794 294.075 227.794C295.416 227.794 296.596 227.821 297.615 227.874C298.634 227.928 299.492 228.008 300.189 228.116C302.174 226.131 303.944 225.139 305.499 225.139C306.357 225.139 306.786 225.622 306.786 226.587C306.786 227.231 305.955 227.901 304.292 228.598C312.069 229.886 318.397 232.674 323.278 236.965C328.748 241.845 331.483 248.12 331.483 255.789C331.483 265.819 327.273 273.81 318.853 279.763C311.398 285.072 302.469 287.727 292.064 287.727C284.717 287.727 279.139 286.198 275.331 283.141C270.719 287.271 265.785 289.336 260.529 289.336ZM292.064 284.992C301.772 284.992 310.084 282.578 317.003 277.752C324.779 272.388 328.668 265.068 328.668 255.789C328.668 248.388 325.879 242.462 320.301 238.011C315.582 234.256 309.226 231.897 301.235 230.931C298.554 234.149 296.033 239.137 293.673 245.894C292.815 248.576 291.93 251.284 291.018 254.02C290.107 256.701 289.195 259.383 288.283 262.064C290.75 263.995 291.984 266.462 291.984 269.465C291.984 273.488 290.965 275.499 288.927 275.499C288.122 275.499 287.72 275.07 287.72 274.212C287.72 273.997 287.961 273.381 288.444 272.362C288.98 271.343 289.249 270.431 289.249 269.626C289.249 267.749 288.551 266.114 287.157 264.719C284.207 271.798 280.909 277.269 277.262 281.13C280.587 283.705 285.521 284.992 292.064 284.992ZM275.331 279.28C278.817 275.472 282.035 270.082 284.985 263.11C283.859 262.627 282.652 262.386 281.365 262.386C278.63 262.386 276.431 263.271 274.768 265.041C273.159 266.757 272.355 268.983 272.355 271.718C272.355 274.4 273.347 276.92 275.331 279.28Z" fill="#A59E96"/>
<path d="M360.071 284.268C358.086 284.268 356.424 283.678 355.083 282.498C353.742 281.264 353.179 279.495 353.394 277.188C350.122 281.854 346.18 284.187 341.568 284.187C338.618 284.187 336.419 283.034 334.971 280.728C333.791 278.905 333.202 276.438 333.202 273.327C333.202 272.737 333.228 272.147 333.282 271.557C333.336 270.914 333.416 270.297 333.523 269.707C333.899 267.562 334.623 265.497 335.695 263.512C336.768 261.474 338.162 259.463 339.879 257.479C343.74 253.135 347.736 250.963 351.865 250.963C354.064 250.963 355.888 251.606 357.336 252.893C358.784 254.127 359.508 255.87 359.508 258.122C359.508 259.034 359.266 259.919 358.784 260.777C359.91 260.831 360.366 261.34 360.151 262.306L357.577 269.626C356.719 272.04 356.29 274.239 356.29 276.223C356.29 278.046 356.665 279.468 357.416 280.487C358.221 281.506 359.293 282.015 360.634 282.015C361.385 282.015 362.216 281.801 363.128 281.372C364.04 280.943 365.085 280.219 366.265 279.2C367.07 278.502 367.821 277.725 368.518 276.867C369.269 276.008 369.912 275.15 370.449 274.292C370.77 273.81 371.119 273.354 371.494 272.925C371.87 272.442 372.245 272.201 372.621 272.201C373.264 272.201 373.586 272.549 373.586 273.246C373.586 273.515 373.532 273.783 373.425 274.051C373.371 274.265 373.291 274.426 373.184 274.534C372.487 275.66 371.709 276.759 370.851 277.832C369.993 278.905 369.081 279.897 368.116 280.808C366.828 281.988 365.488 282.873 364.093 283.463C362.699 284 361.358 284.268 360.071 284.268ZM335.937 273.729C335.937 278.878 337.921 281.452 341.89 281.452C345.269 281.452 348.192 279.843 350.659 276.625C351.409 275.606 352.187 274.319 352.992 272.764C353.796 271.208 354.574 269.385 355.324 267.293C355.539 266.757 355.754 266.14 355.968 265.443C356.236 264.692 356.558 263.861 356.933 262.949C355.861 263.754 354.761 264.156 353.635 264.156C351.704 264.156 350.739 263.62 350.739 262.547C350.739 261.635 351.195 261.179 352.107 261.179C352.268 261.179 352.482 261.233 352.75 261.34C353.072 261.394 353.313 261.421 353.474 261.421C354.279 261.421 355.029 261.072 355.727 260.375C356.424 259.678 356.773 258.927 356.773 258.122C356.773 255.173 355.11 253.698 351.785 253.698C348.46 253.698 345.135 255.629 341.809 259.49C338.645 263.03 336.795 266.596 336.259 270.189C336.151 270.779 336.071 271.369 336.017 271.959C335.964 272.549 335.937 273.139 335.937 273.729Z" fill="#A59E96"/>
<path d="M394.869 284.348C392.885 284.348 391.33 283.812 390.203 282.739C389.077 281.667 388.514 280.165 388.514 278.234C388.514 277.537 388.702 276.438 389.077 274.936C389.452 273.434 389.962 271.772 390.606 269.948C391.356 267.749 391.919 265.979 392.295 264.639C392.724 263.298 392.992 262.359 393.099 261.823C393.207 261.233 393.287 260.697 393.341 260.214C393.394 259.731 393.421 259.276 393.421 258.846C393.421 255.789 392.134 254.261 389.56 254.261C385.913 254.261 382.4 257.103 379.021 262.788C377.305 265.684 375.267 270.216 372.907 276.384C372.693 277.135 372.344 278.073 371.861 279.2C371.432 280.272 370.923 281.533 370.333 282.981C370.065 283.571 369.716 283.865 369.287 283.865C368.912 283.865 368.563 283.705 368.241 283.383C367.919 283.007 367.759 282.659 367.759 282.337C367.759 282.122 368.67 279.521 370.494 274.534C373.98 264.88 375.723 257.452 375.723 252.25C375.723 251.231 376.179 250.721 377.09 250.721C377.627 250.721 378.056 251.097 378.378 251.848C378.699 252.545 378.86 253.162 378.86 253.698C378.86 255.146 378.619 256.889 378.136 258.927C381.783 253.939 385.725 251.445 389.962 251.445C394.413 251.445 396.639 253.859 396.639 258.686C396.639 260.777 395.54 264.96 393.341 271.235C392.965 272.308 392.59 273.488 392.214 274.775C391.893 276.062 391.732 277.242 391.732 278.315C391.732 279.28 391.919 280.084 392.295 280.728C392.724 281.318 393.475 281.613 394.547 281.613C395.727 281.613 396.988 281.264 398.328 280.567C399.669 279.816 400.956 278.878 402.19 277.752C403.423 276.625 404.416 275.445 405.166 274.212C405.649 273.461 406.025 272.898 406.293 272.522C406.614 272.147 406.99 271.959 407.419 271.959C408.063 271.959 408.384 272.335 408.384 273.086C408.384 273.193 408.331 273.434 408.223 273.81C408.116 274.185 408.009 274.426 407.902 274.534C406.99 276.25 405.81 277.859 404.362 279.36C402.914 280.862 401.359 282.069 399.696 282.981C398.033 283.892 396.425 284.348 394.869 284.348Z" fill="#A59E96"/>
<path d="M411.975 284.75C407.846 284.75 405.781 281.425 405.781 274.775C405.781 269.197 406.988 262.359 409.401 254.261H406.827C405.969 254.261 405.54 253.805 405.54 252.893C405.54 251.982 405.969 251.526 406.827 251.526H410.286C410.983 249.434 411.707 247.477 412.458 245.653C413.209 243.83 413.987 242.167 414.791 240.665C417.205 236 419.564 233.667 421.871 233.667C423.694 233.667 424.606 235.115 424.606 238.011C424.606 239.566 424.338 241.229 423.801 242.998C423.426 244.232 422.997 245.573 422.514 247.021C422.031 248.415 421.468 249.917 420.825 251.526H424.767C425.678 251.526 426.134 251.982 426.134 252.893C426.134 253.805 425.678 254.261 424.767 254.261H419.538C416.802 260.375 413.182 266.489 408.677 272.603C408.624 273.032 408.597 273.461 408.597 273.89C408.597 274.265 408.597 274.641 408.597 275.016C408.597 279.789 409.938 282.176 412.619 282.176C414.711 282.176 416.561 281.425 418.17 279.924C419.832 278.422 421.334 276.545 422.675 274.292C423.211 273.381 423.667 272.764 424.043 272.442C424.418 272.12 424.713 271.959 424.927 271.959C425.571 271.959 425.893 272.362 425.893 273.166C425.893 273.273 425.812 273.541 425.651 273.97C425.544 274.346 425.437 274.587 425.33 274.695C423.774 277.644 421.87 280.058 419.618 281.935C417.365 283.812 414.818 284.75 411.975 284.75ZM413.263 251.526H417.687C418.545 249.649 419.243 247.986 419.779 246.538C420.369 245.09 420.825 243.857 421.146 242.838C421.576 241.229 421.79 239.888 421.79 238.815C421.79 237.635 421.549 237.045 421.066 237.045C420.208 237.045 419.001 238.493 417.446 241.389C416.749 242.73 416.051 244.259 415.354 245.975C414.657 247.638 413.96 249.488 413.263 251.526ZM409.321 267.293C410.554 265.255 411.761 263.164 412.941 261.019C414.121 258.82 415.274 256.567 416.4 254.261H412.378C411.681 256.406 411.064 258.578 410.527 260.777C410.045 262.922 409.643 265.095 409.321 267.293Z" fill="#A59E96"/>
<path d="M450.652 284.268C448.668 284.268 447.005 283.678 445.665 282.498C444.324 281.264 443.761 279.495 443.975 277.188C440.704 281.854 436.762 284.187 432.149 284.187C429.2 284.187 427.001 283.034 425.553 280.728C424.373 278.905 423.783 276.438 423.783 273.327C423.783 272.737 423.81 272.147 423.863 271.557C423.917 270.914 423.998 270.297 424.105 269.707C424.48 267.562 425.204 265.497 426.277 263.512C427.349 261.474 428.744 259.463 430.46 257.479C434.322 253.135 438.317 250.963 442.447 250.963C444.646 250.963 446.469 251.606 447.917 252.893C449.365 254.127 450.089 255.87 450.089 258.122C450.089 259.034 449.848 259.919 449.365 260.777C450.491 260.831 450.947 261.34 450.733 262.306L448.158 269.626C447.3 272.04 446.871 274.239 446.871 276.223C446.871 278.046 447.247 279.468 447.998 280.487C448.802 281.506 449.875 282.015 451.215 282.015C451.966 282.015 452.798 281.801 453.709 281.372C454.621 280.943 455.667 280.219 456.847 279.2C457.651 278.502 458.402 277.725 459.099 276.867C459.85 276.008 460.494 275.15 461.03 274.292C461.352 273.81 461.7 273.354 462.076 272.925C462.451 272.442 462.827 272.201 463.202 272.201C463.846 272.201 464.167 272.549 464.167 273.246C464.167 273.515 464.114 273.783 464.006 274.051C463.953 274.265 463.872 274.426 463.765 274.534C463.068 275.66 462.29 276.759 461.432 277.832C460.574 278.905 459.662 279.897 458.697 280.808C457.41 281.988 456.069 282.873 454.675 283.463C453.28 284 451.939 284.268 450.652 284.268ZM426.518 273.729C426.518 278.878 428.503 281.452 432.471 281.452C435.85 281.452 438.773 279.843 441.24 276.625C441.991 275.606 442.768 274.319 443.573 272.764C444.377 271.208 445.155 269.385 445.906 267.293C446.12 266.757 446.335 266.14 446.55 265.443C446.818 264.692 447.139 263.861 447.515 262.949C446.442 263.754 445.343 264.156 444.217 264.156C442.286 264.156 441.32 263.62 441.32 262.547C441.32 261.635 441.776 261.179 442.688 261.179C442.849 261.179 443.063 261.233 443.332 261.34C443.653 261.394 443.895 261.421 444.056 261.421C444.86 261.421 445.611 261.072 446.308 260.375C447.005 259.678 447.354 258.927 447.354 258.122C447.354 255.173 445.691 253.698 442.366 253.698C439.041 253.698 435.716 255.629 432.391 259.49C429.227 263.03 427.376 266.596 426.84 270.189C426.733 270.779 426.652 271.369 426.599 271.959C426.545 272.549 426.518 273.139 426.518 273.729Z" fill="#A59E96"/>
<path d="M471.694 285.314C468.691 285.314 466.17 284.536 464.132 282.981C461.826 281.211 460.673 278.824 460.673 275.821C460.673 273.89 461.156 272.04 462.121 270.27C463.086 268.5 464.4 267.133 466.063 266.167C467.136 264.612 468.396 262.922 469.844 261.099C471.292 259.276 472.928 257.291 474.751 255.146C474.108 253.43 473.786 251.821 473.786 250.319C473.786 248.549 474.108 246.994 474.751 245.653C475.609 243.83 476.896 242.918 478.613 242.918C481.133 242.918 482.394 244.232 482.394 246.86C482.394 248.522 481.965 249.944 481.107 251.124L478.05 255.468L483.118 262.547C484.083 263.888 484.78 265.255 485.209 266.65C485.692 268.044 485.933 269.412 485.933 270.753C485.933 274.775 484.566 278.207 481.831 281.05C479.095 283.892 475.717 285.314 471.694 285.314ZM476.843 252.732C477.594 251.874 478.237 251.016 478.774 250.158C479.524 248.764 479.9 247.691 479.9 246.94C479.9 246.136 479.471 245.734 478.613 245.734C477.165 245.734 476.441 247.289 476.441 250.4C476.441 250.775 476.467 251.15 476.521 251.526C476.628 251.901 476.736 252.303 476.843 252.732ZM471.614 282.498C474.993 282.498 477.755 281.372 479.9 279.119C482.099 276.813 483.198 274.024 483.198 270.753C483.198 268.5 482.34 266.194 480.624 263.834L476.119 257.72L470.166 265.121C473.92 265.336 475.797 267.186 475.797 270.672C475.797 271.745 475.422 272.817 474.671 273.89C474.295 274.426 473.813 274.695 473.223 274.695C472.472 274.695 472.096 274.212 472.096 273.246C472.096 272.925 472.257 272.496 472.579 271.959C472.901 271.423 473.062 270.994 473.062 270.672C473.062 268.795 472.043 267.857 470.005 267.857C469.361 267.857 468.744 267.937 468.155 268.098C468.208 269.224 467.752 270.484 466.787 271.879C465.875 273.22 464.776 274.346 463.489 275.258C463.81 280.084 466.519 282.498 471.614 282.498Z" fill="#A59E96"/>
</svg>
